<mxfile host="app.diagrams.net" modified="2024-03-21T14:37:13.022Z" agent="Mozilla/5.0 (Windows NT 10.0; Win64; x64) AppleWebKit/537.36 (KHTML, like Gecko) Chrome/121.0.0.0 Safari/537.36 OPR/107.0.0.0" etag="d-BbzXJqf6XeW-BbGd-g" version="24.0.2" type="device" pages="2">
  <diagram name="Strona-1" id="AWiner5oOUAS1Hgjm13_">
    <mxGraphModel dx="1009" dy="550" grid="1" gridSize="10" guides="1" tooltips="1" connect="1" arrows="1" fold="1" page="1" pageScale="1" pageWidth="827" pageHeight="1169" math="0" shadow="0">
      <root>
        <mxCell id="0" />
        <mxCell id="1" parent="0" />
        <mxCell id="_uGei1udF8YWrSWECQ0q-1" value="" style="strokeWidth=1;shadow=0;dashed=0;align=center;html=1;shape=mxgraph.mockup.containers.browserWindow;rSize=0;strokeColor=#666666;strokeColor2=#008cff;strokeColor3=#c4c4c4;mainText=,;recursiveResize=0;" vertex="1" parent="1">
          <mxGeometry x="170" y="80" width="560" height="530" as="geometry" />
        </mxCell>
        <mxCell id="_uGei1udF8YWrSWECQ0q-2" value="Page 1" style="strokeWidth=1;shadow=0;dashed=0;align=center;html=1;shape=mxgraph.mockup.containers.anchor;fontSize=17;fontColor=#666666;align=left;whiteSpace=wrap;" vertex="1" parent="_uGei1udF8YWrSWECQ0q-1">
          <mxGeometry x="60" y="12" width="110" height="26" as="geometry" />
        </mxCell>
        <mxCell id="_uGei1udF8YWrSWECQ0q-3" value="https://www.scrum-board.com/tablica/1" style="strokeWidth=1;shadow=0;dashed=0;align=center;html=1;shape=mxgraph.mockup.containers.anchor;rSize=0;fontSize=17;fontColor=#666666;align=left;" vertex="1" parent="_uGei1udF8YWrSWECQ0q-1">
          <mxGeometry x="130" y="60" width="250" height="26" as="geometry" />
        </mxCell>
        <mxCell id="_uGei1udF8YWrSWECQ0q-4" value="" style="verticalLabelPosition=bottom;shadow=0;dashed=0;align=center;html=1;verticalAlign=top;strokeWidth=1;shape=mxgraph.mockup.containers.userMale;strokeColor=#666666;strokeColor2=#008cff;" vertex="1" parent="_uGei1udF8YWrSWECQ0q-1">
          <mxGeometry x="520" y="110" width="40" height="40" as="geometry" />
        </mxCell>
        <mxCell id="_uGei1udF8YWrSWECQ0q-5" value="" style="strokeWidth=1;shadow=0;dashed=0;align=center;html=1;shape=mxgraph.mockup.forms.anchor;align=right;spacingRight=2;fontColor=#666666;" vertex="1" parent="_uGei1udF8YWrSWECQ0q-1">
          <mxGeometry x="60" y="200" width="50" height="18" as="geometry" />
        </mxCell>
        <mxCell id="_uGei1udF8YWrSWECQ0q-6" value="" style="strokeWidth=1;shadow=0;dashed=0;align=center;html=1;shape=mxgraph.mockup.forms.anchor;align=right;spacingRight=2;fontColor=#666666;" vertex="1" parent="_uGei1udF8YWrSWECQ0q-1">
          <mxGeometry x="60" y="230" width="50" height="18" as="geometry" />
        </mxCell>
        <mxCell id="_uGei1udF8YWrSWECQ0q-7" value="" style="verticalLabelPosition=bottom;shadow=0;dashed=0;align=center;html=1;verticalAlign=top;strokeWidth=1;shape=mxgraph.mockup.misc.help_icon;" vertex="1" parent="_uGei1udF8YWrSWECQ0q-1">
          <mxGeometry x="6" y="118" width="32" height="32" as="geometry" />
        </mxCell>
        <mxCell id="_uGei1udF8YWrSWECQ0q-8" value="&lt;font style=&quot;font-size: 14px;&quot;&gt;&lt;b&gt;Nazwa tablicy&lt;/b&gt;&lt;/font&gt;" style="text;html=1;align=center;verticalAlign=middle;whiteSpace=wrap;rounded=0;" vertex="1" parent="_uGei1udF8YWrSWECQ0q-1">
          <mxGeometry x="38" y="120" width="102" height="30" as="geometry" />
        </mxCell>
        <mxCell id="_uGei1udF8YWrSWECQ0q-9" value="Nazwa sekcji" style="swimlane;whiteSpace=wrap;html=1;" vertex="1" parent="_uGei1udF8YWrSWECQ0q-1">
          <mxGeometry x="207.5" y="180" width="145" height="230" as="geometry">
            <mxRectangle x="215" y="200" width="110" height="30" as="alternateBounds" />
          </mxGeometry>
        </mxCell>
        <mxCell id="_uGei1udF8YWrSWECQ0q-23" value="" style="strokeColor=#999999;verticalLabelPosition=bottom;shadow=0;dashed=0;verticalAlign=top;strokeWidth=2;html=1;shape=mxgraph.mockup.misc.editIcon;" vertex="1" parent="_uGei1udF8YWrSWECQ0q-9">
          <mxGeometry x="115" width="30" height="22" as="geometry" />
        </mxCell>
        <mxCell id="_uGei1udF8YWrSWECQ0q-24" value="" style="endArrow=none;html=1;rounded=0;" edge="1" parent="_uGei1udF8YWrSWECQ0q-9">
          <mxGeometry width="50" height="50" relative="1" as="geometry">
            <mxPoint x="130" y="50" as="sourcePoint" />
            <mxPoint x="130" y="30" as="targetPoint" />
          </mxGeometry>
        </mxCell>
        <mxCell id="_uGei1udF8YWrSWECQ0q-25" value="" style="endArrow=none;html=1;rounded=0;" edge="1" parent="_uGei1udF8YWrSWECQ0q-9">
          <mxGeometry width="50" height="50" relative="1" as="geometry">
            <mxPoint x="140" y="40" as="sourcePoint" />
            <mxPoint x="120" y="40" as="targetPoint" />
          </mxGeometry>
        </mxCell>
        <mxCell id="_uGei1udF8YWrSWECQ0q-39" value="" style="endArrow=none;html=1;rounded=0;" edge="1" parent="_uGei1udF8YWrSWECQ0q-1">
          <mxGeometry width="50" height="50" relative="1" as="geometry">
            <mxPoint x="380" y="305" as="sourcePoint" />
            <mxPoint x="380" y="285" as="targetPoint" />
          </mxGeometry>
        </mxCell>
        <mxCell id="_uGei1udF8YWrSWECQ0q-40" value="" style="endArrow=none;html=1;rounded=0;" edge="1" parent="_uGei1udF8YWrSWECQ0q-1">
          <mxGeometry width="50" height="50" relative="1" as="geometry">
            <mxPoint x="390" y="295" as="sourcePoint" />
            <mxPoint x="370" y="295" as="targetPoint" />
          </mxGeometry>
        </mxCell>
        <mxCell id="_uGei1udF8YWrSWECQ0q-41" value="&lt;font style=&quot;font-size: 9px;&quot;&gt;dodaj nową sekcję&lt;/font&gt;" style="text;html=1;align=center;verticalAlign=middle;whiteSpace=wrap;rounded=0;strokeWidth=1;" vertex="1" parent="_uGei1udF8YWrSWECQ0q-1">
          <mxGeometry x="353" y="310" width="57" height="30" as="geometry" />
        </mxCell>
        <mxCell id="PqCgT_i_we4N_XFNBk3o-1" value="" style="strokeWidth=1;shadow=0;dashed=0;align=center;html=1;shape=mxgraph.mockup.containers.rrect;rSize=0;strokeColor=#666666;fontColor=#666666;fontSize=17;verticalAlign=top;whiteSpace=wrap;fillColor=#ffffff;spacingTop=32;" vertex="1" parent="_uGei1udF8YWrSWECQ0q-1">
          <mxGeometry x="80" y="160" width="430" height="320" as="geometry" />
        </mxCell>
        <mxCell id="PqCgT_i_we4N_XFNBk3o-2" value="Tworzenie zadania" style="strokeWidth=1;shadow=0;dashed=0;align=center;html=1;shape=mxgraph.mockup.containers.rrect;rSize=0;fontSize=17;fontColor=#666666;strokeColor=#666666;align=left;spacingLeft=8;fillColor=none;resizeWidth=1;whiteSpace=wrap;" vertex="1" parent="PqCgT_i_we4N_XFNBk3o-1">
          <mxGeometry width="430" height="30" relative="1" as="geometry" />
        </mxCell>
        <mxCell id="PqCgT_i_we4N_XFNBk3o-5" value="utwórz" style="strokeWidth=1;shadow=0;dashed=0;align=center;html=1;shape=mxgraph.mockup.containers.rrect;rSize=0;fontSize=16;fontColor=#666666;strokeColor=#c4c4c4;whiteSpace=wrap;fillColor=none;" vertex="1" parent="PqCgT_i_we4N_XFNBk3o-1">
          <mxGeometry x="0.75" y="1" width="90" height="25" relative="1" as="geometry">
            <mxPoint x="8" y="-33" as="offset" />
          </mxGeometry>
        </mxCell>
        <mxCell id="DQ0FLcL_ysHS5xTHiYGR-1" value="" style="verticalLabelPosition=bottom;verticalAlign=top;html=1;shape=mxgraph.basic.x" vertex="1" parent="PqCgT_i_we4N_XFNBk3o-1">
          <mxGeometry x="406" width="24" height="30" as="geometry" />
        </mxCell>
        <mxCell id="DQ0FLcL_ysHS5xTHiYGR-4" value="nazwa zadania" style="strokeWidth=1;shadow=0;dashed=0;align=center;html=1;shape=mxgraph.mockup.text.textBox;fontColor=#666666;align=left;fontSize=17;spacingLeft=4;spacingTop=-3;whiteSpace=wrap;strokeColor=#666666;mainText=" vertex="1" parent="PqCgT_i_we4N_XFNBk3o-1">
          <mxGeometry x="93" y="74.8" width="317" height="32.8" as="geometry" />
        </mxCell>
        <mxCell id="DQ0FLcL_ysHS5xTHiYGR-5" value="Nazwa" style="text;html=1;align=center;verticalAlign=middle;whiteSpace=wrap;rounded=0;" vertex="1" parent="PqCgT_i_we4N_XFNBk3o-1">
          <mxGeometry x="30" y="67.2" width="60" height="47.99999999999999" as="geometry" />
        </mxCell>
        <mxCell id="DQ0FLcL_ysHS5xTHiYGR-6" value="Opis" style="text;html=1;align=center;verticalAlign=middle;whiteSpace=wrap;rounded=0;" vertex="1" parent="PqCgT_i_we4N_XFNBk3o-1">
          <mxGeometry x="33" y="127.99999999999999" width="60" height="47.99999999999999" as="geometry" />
        </mxCell>
        <mxCell id="DQ0FLcL_ysHS5xTHiYGR-7" value="opis" style="strokeWidth=1;shadow=0;dashed=0;align=center;html=1;shape=mxgraph.mockup.text.textBox;fontColor=#666666;align=left;fontSize=17;spacingLeft=4;spacingTop=-3;whiteSpace=wrap;strokeColor=#666666;mainText=" vertex="1" parent="PqCgT_i_we4N_XFNBk3o-1">
          <mxGeometry x="93" y="127.99999999999999" width="317" height="80.00000000000001" as="geometry" />
        </mxCell>
        <mxCell id="uQGhYSOyLo1qmVVU0KXH-1" value="" style="strokeWidth=1;shadow=0;dashed=0;align=center;html=1;shape=mxgraph.mockup.forms.rrect;rSize=5;strokeColor=#999999;fillColor=#ffffff;" vertex="1" parent="PqCgT_i_we4N_XFNBk3o-1">
          <mxGeometry x="93" y="218.18" width="217" height="77.21" as="geometry" />
        </mxCell>
        <mxCell id="uQGhYSOyLo1qmVVU0KXH-2" value="October 2014" style="strokeWidth=1;shadow=0;dashed=0;align=center;html=1;shape=mxgraph.mockup.forms.anchor;fontColor=#999999;" vertex="1" parent="uQGhYSOyLo1qmVVU0KXH-1">
          <mxGeometry x="40.6875" y="3.529599999999999" width="135.625" height="8.823999999999998" as="geometry" />
        </mxCell>
        <mxCell id="uQGhYSOyLo1qmVVU0KXH-3" value="&lt;" style="strokeWidth=1;shadow=0;dashed=0;align=center;html=1;shape=mxgraph.mockup.forms.rrect;rSize=4;strokeColor=#999999;fontColor=#008cff;fontSize=19;fontStyle=1;" vertex="1" parent="uQGhYSOyLo1qmVVU0KXH-1">
          <mxGeometry x="10.85" y="3.529599999999999" width="33.90625" height="8.823999999999998" as="geometry" />
        </mxCell>
        <mxCell id="uQGhYSOyLo1qmVVU0KXH-4" value="&gt;" style="strokeWidth=1;shadow=0;dashed=0;align=center;html=1;shape=mxgraph.mockup.forms.rrect;rSize=4;strokeColor=#999999;fontColor=#008cff;fontSize=19;fontStyle=1;" vertex="1" parent="uQGhYSOyLo1qmVVU0KXH-1">
          <mxGeometry x="172.24375" y="3.529599999999999" width="33.90625" height="8.823999999999998" as="geometry" />
        </mxCell>
        <mxCell id="uQGhYSOyLo1qmVVU0KXH-5" value="Mo" style="strokeWidth=1;shadow=0;dashed=0;align=center;html=1;shape=mxgraph.mockup.forms.anchor;fontColor=#999999;" vertex="1" parent="uQGhYSOyLo1qmVVU0KXH-1">
          <mxGeometry x="13.562500000000002" y="12.353599999999995" width="27.125000000000004" height="8.823999999999998" as="geometry" />
        </mxCell>
        <mxCell id="uQGhYSOyLo1qmVVU0KXH-6" value="Tu" style="strokeWidth=1;shadow=0;dashed=0;align=center;html=1;shape=mxgraph.mockup.forms.anchor;fontColor=#999999;" vertex="1" parent="uQGhYSOyLo1qmVVU0KXH-1">
          <mxGeometry x="40.6875" y="12.353599999999995" width="27.125000000000004" height="8.823999999999998" as="geometry" />
        </mxCell>
        <mxCell id="uQGhYSOyLo1qmVVU0KXH-7" value="We" style="strokeWidth=1;shadow=0;dashed=0;align=center;html=1;shape=mxgraph.mockup.forms.anchor;fontColor=#999999;" vertex="1" parent="uQGhYSOyLo1qmVVU0KXH-1">
          <mxGeometry x="67.8125" y="12.353599999999995" width="27.125000000000004" height="8.823999999999998" as="geometry" />
        </mxCell>
        <mxCell id="uQGhYSOyLo1qmVVU0KXH-8" value="Th" style="strokeWidth=1;shadow=0;dashed=0;align=center;html=1;shape=mxgraph.mockup.forms.anchor;fontColor=#999999;" vertex="1" parent="uQGhYSOyLo1qmVVU0KXH-1">
          <mxGeometry x="94.93750000000001" y="12.353599999999995" width="27.125000000000004" height="8.823999999999998" as="geometry" />
        </mxCell>
        <mxCell id="uQGhYSOyLo1qmVVU0KXH-9" value="Fr" style="strokeWidth=1;shadow=0;dashed=0;align=center;html=1;shape=mxgraph.mockup.forms.anchor;fontColor=#999999;" vertex="1" parent="uQGhYSOyLo1qmVVU0KXH-1">
          <mxGeometry x="122.06250000000001" y="12.353599999999995" width="27.125000000000004" height="8.823999999999998" as="geometry" />
        </mxCell>
        <mxCell id="uQGhYSOyLo1qmVVU0KXH-10" value="Sa" style="strokeWidth=1;shadow=0;dashed=0;align=center;html=1;shape=mxgraph.mockup.forms.anchor;fontColor=#999999;" vertex="1" parent="uQGhYSOyLo1qmVVU0KXH-1">
          <mxGeometry x="149.1875" y="12.353599999999995" width="27.125000000000004" height="8.823999999999998" as="geometry" />
        </mxCell>
        <mxCell id="uQGhYSOyLo1qmVVU0KXH-11" value="Su" style="strokeWidth=1;shadow=0;dashed=0;align=center;html=1;shape=mxgraph.mockup.forms.anchor;fontColor=#999999;" vertex="1" parent="uQGhYSOyLo1qmVVU0KXH-1">
          <mxGeometry x="176.31250000000003" y="12.353599999999995" width="27.125000000000004" height="8.823999999999998" as="geometry" />
        </mxCell>
        <mxCell id="uQGhYSOyLo1qmVVU0KXH-12" value="1" style="strokeWidth=1;shadow=0;dashed=0;align=center;html=1;shape=mxgraph.mockup.forms.rrect;rSize=0;strokeColor=#999999;fontColor=#999999;" vertex="1" parent="uQGhYSOyLo1qmVVU0KXH-1">
          <mxGeometry x="13.562500000000002" y="21.17759999999999" width="27.125000000000004" height="8.823999999999998" as="geometry" />
        </mxCell>
        <mxCell id="uQGhYSOyLo1qmVVU0KXH-13" value="2" style="strokeWidth=1;shadow=0;dashed=0;align=center;html=1;shape=mxgraph.mockup.forms.rrect;rSize=0;strokeColor=#999999;fontColor=#999999;" vertex="1" parent="uQGhYSOyLo1qmVVU0KXH-1">
          <mxGeometry x="40.6875" y="21.17759999999999" width="27.125000000000004" height="8.823999999999998" as="geometry" />
        </mxCell>
        <mxCell id="uQGhYSOyLo1qmVVU0KXH-14" value="3" style="strokeWidth=1;shadow=0;dashed=0;align=center;html=1;shape=mxgraph.mockup.forms.rrect;rSize=0;strokeColor=#999999;fontColor=#999999;" vertex="1" parent="uQGhYSOyLo1qmVVU0KXH-1">
          <mxGeometry x="67.8125" y="21.17759999999999" width="27.125000000000004" height="8.823999999999998" as="geometry" />
        </mxCell>
        <mxCell id="uQGhYSOyLo1qmVVU0KXH-15" value="4" style="strokeWidth=1;shadow=0;dashed=0;align=center;html=1;shape=mxgraph.mockup.forms.rrect;rSize=0;strokeColor=#999999;fontColor=#999999;" vertex="1" parent="uQGhYSOyLo1qmVVU0KXH-1">
          <mxGeometry x="94.93750000000001" y="21.17759999999999" width="27.125000000000004" height="8.823999999999998" as="geometry" />
        </mxCell>
        <mxCell id="uQGhYSOyLo1qmVVU0KXH-16" value="5" style="strokeWidth=1;shadow=0;dashed=0;align=center;html=1;shape=mxgraph.mockup.forms.rrect;rSize=0;strokeColor=#999999;fontColor=#999999;" vertex="1" parent="uQGhYSOyLo1qmVVU0KXH-1">
          <mxGeometry x="122.06250000000001" y="21.17759999999999" width="27.125000000000004" height="8.823999999999998" as="geometry" />
        </mxCell>
        <mxCell id="uQGhYSOyLo1qmVVU0KXH-17" value="6" style="strokeWidth=1;shadow=0;dashed=0;align=center;html=1;shape=mxgraph.mockup.forms.rrect;rSize=0;strokeColor=#999999;fontColor=#999999;" vertex="1" parent="uQGhYSOyLo1qmVVU0KXH-1">
          <mxGeometry x="149.1875" y="21.17759999999999" width="27.125000000000004" height="8.823999999999998" as="geometry" />
        </mxCell>
        <mxCell id="uQGhYSOyLo1qmVVU0KXH-18" value="7" style="strokeWidth=1;shadow=0;dashed=0;align=center;html=1;shape=mxgraph.mockup.forms.rrect;rSize=0;strokeColor=#999999;fontColor=#999999;" vertex="1" parent="uQGhYSOyLo1qmVVU0KXH-1">
          <mxGeometry x="176.31250000000003" y="21.17759999999999" width="27.125000000000004" height="8.823999999999998" as="geometry" />
        </mxCell>
        <mxCell id="uQGhYSOyLo1qmVVU0KXH-19" value="8" style="strokeWidth=1;shadow=0;dashed=0;align=center;html=1;shape=mxgraph.mockup.forms.rrect;rSize=0;strokeColor=#999999;fontColor=#999999;" vertex="1" parent="uQGhYSOyLo1qmVVU0KXH-1">
          <mxGeometry x="13.562500000000002" y="30.001599999999993" width="27.125000000000004" height="8.823999999999998" as="geometry" />
        </mxCell>
        <mxCell id="uQGhYSOyLo1qmVVU0KXH-20" value="9" style="strokeWidth=1;shadow=0;dashed=0;align=center;html=1;shape=mxgraph.mockup.forms.rrect;rSize=0;strokeColor=#999999;fontColor=#999999;" vertex="1" parent="uQGhYSOyLo1qmVVU0KXH-1">
          <mxGeometry x="40.6875" y="30.001599999999993" width="27.125000000000004" height="8.823999999999998" as="geometry" />
        </mxCell>
        <mxCell id="uQGhYSOyLo1qmVVU0KXH-21" value="10" style="strokeWidth=1;shadow=0;dashed=0;align=center;html=1;shape=mxgraph.mockup.forms.rrect;rSize=0;strokeColor=#999999;fontColor=#999999;" vertex="1" parent="uQGhYSOyLo1qmVVU0KXH-1">
          <mxGeometry x="67.8125" y="30.001599999999993" width="27.125000000000004" height="8.823999999999998" as="geometry" />
        </mxCell>
        <mxCell id="uQGhYSOyLo1qmVVU0KXH-22" value="11" style="strokeWidth=1;shadow=0;dashed=0;align=center;html=1;shape=mxgraph.mockup.forms.rrect;rSize=0;strokeColor=#999999;fontColor=#999999;" vertex="1" parent="uQGhYSOyLo1qmVVU0KXH-1">
          <mxGeometry x="94.93750000000001" y="30.001599999999993" width="27.125000000000004" height="8.823999999999998" as="geometry" />
        </mxCell>
        <mxCell id="uQGhYSOyLo1qmVVU0KXH-23" value="12" style="strokeWidth=1;shadow=0;dashed=0;align=center;html=1;shape=mxgraph.mockup.forms.rrect;rSize=0;strokeColor=#999999;fontColor=#999999;" vertex="1" parent="uQGhYSOyLo1qmVVU0KXH-1">
          <mxGeometry x="122.06250000000001" y="30.001599999999993" width="27.125000000000004" height="8.823999999999998" as="geometry" />
        </mxCell>
        <mxCell id="uQGhYSOyLo1qmVVU0KXH-24" value="13" style="strokeWidth=1;shadow=0;dashed=0;align=center;html=1;shape=mxgraph.mockup.forms.rrect;rSize=0;strokeColor=#999999;fontColor=#999999;" vertex="1" parent="uQGhYSOyLo1qmVVU0KXH-1">
          <mxGeometry x="149.1875" y="30.001599999999993" width="27.125000000000004" height="8.823999999999998" as="geometry" />
        </mxCell>
        <mxCell id="uQGhYSOyLo1qmVVU0KXH-25" value="14" style="strokeWidth=1;shadow=0;dashed=0;align=center;html=1;shape=mxgraph.mockup.forms.rrect;rSize=0;strokeColor=#999999;fontColor=#999999;" vertex="1" parent="uQGhYSOyLo1qmVVU0KXH-1">
          <mxGeometry x="176.31250000000003" y="30.001599999999993" width="27.125000000000004" height="8.823999999999998" as="geometry" />
        </mxCell>
        <mxCell id="uQGhYSOyLo1qmVVU0KXH-26" value="15" style="strokeWidth=1;shadow=0;dashed=0;align=center;html=1;shape=mxgraph.mockup.forms.rrect;rSize=0;strokeColor=#999999;fontColor=#999999;" vertex="1" parent="uQGhYSOyLo1qmVVU0KXH-1">
          <mxGeometry x="13.562500000000002" y="38.825599999999994" width="27.125000000000004" height="8.823999999999998" as="geometry" />
        </mxCell>
        <mxCell id="uQGhYSOyLo1qmVVU0KXH-27" value="16" style="strokeWidth=1;shadow=0;dashed=0;align=center;html=1;shape=mxgraph.mockup.forms.rrect;rSize=0;strokeColor=#999999;fontColor=#999999;" vertex="1" parent="uQGhYSOyLo1qmVVU0KXH-1">
          <mxGeometry x="40.6875" y="38.825599999999994" width="27.125000000000004" height="8.823999999999998" as="geometry" />
        </mxCell>
        <mxCell id="uQGhYSOyLo1qmVVU0KXH-28" value="17" style="strokeWidth=1;shadow=0;dashed=0;align=center;html=1;shape=mxgraph.mockup.forms.rrect;rSize=0;strokeColor=#999999;fontColor=#999999;" vertex="1" parent="uQGhYSOyLo1qmVVU0KXH-1">
          <mxGeometry x="67.8125" y="38.825599999999994" width="27.125000000000004" height="8.823999999999998" as="geometry" />
        </mxCell>
        <mxCell id="uQGhYSOyLo1qmVVU0KXH-29" value="18" style="strokeWidth=1;shadow=0;dashed=0;align=center;html=1;shape=mxgraph.mockup.forms.rrect;rSize=0;strokeColor=#999999;fontColor=#999999;" vertex="1" parent="uQGhYSOyLo1qmVVU0KXH-1">
          <mxGeometry x="94.93750000000001" y="38.825599999999994" width="27.125000000000004" height="8.823999999999998" as="geometry" />
        </mxCell>
        <mxCell id="uQGhYSOyLo1qmVVU0KXH-30" value="19" style="strokeWidth=1;shadow=0;dashed=0;align=center;html=1;shape=mxgraph.mockup.forms.rrect;rSize=0;strokeColor=#999999;fontColor=#999999;" vertex="1" parent="uQGhYSOyLo1qmVVU0KXH-1">
          <mxGeometry x="122.06250000000001" y="38.825599999999994" width="27.125000000000004" height="8.823999999999998" as="geometry" />
        </mxCell>
        <mxCell id="uQGhYSOyLo1qmVVU0KXH-31" value="20" style="strokeWidth=1;shadow=0;dashed=0;align=center;html=1;shape=mxgraph.mockup.forms.rrect;rSize=0;strokeColor=#999999;fontColor=#999999;" vertex="1" parent="uQGhYSOyLo1qmVVU0KXH-1">
          <mxGeometry x="149.1875" y="38.825599999999994" width="27.125000000000004" height="8.823999999999998" as="geometry" />
        </mxCell>
        <mxCell id="uQGhYSOyLo1qmVVU0KXH-32" value="21" style="strokeWidth=1;shadow=0;dashed=0;align=center;html=1;shape=mxgraph.mockup.forms.rrect;rSize=0;strokeColor=#999999;fontColor=#999999;" vertex="1" parent="uQGhYSOyLo1qmVVU0KXH-1">
          <mxGeometry x="176.31250000000003" y="38.825599999999994" width="27.125000000000004" height="8.823999999999998" as="geometry" />
        </mxCell>
        <mxCell id="uQGhYSOyLo1qmVVU0KXH-33" value="22" style="strokeWidth=1;shadow=0;dashed=0;align=center;html=1;shape=mxgraph.mockup.forms.rrect;rSize=0;strokeColor=#999999;fontColor=#999999;" vertex="1" parent="uQGhYSOyLo1qmVVU0KXH-1">
          <mxGeometry x="13.562500000000002" y="47.64959999999999" width="27.125000000000004" height="8.823999999999998" as="geometry" />
        </mxCell>
        <mxCell id="uQGhYSOyLo1qmVVU0KXH-34" value="23" style="strokeWidth=1;shadow=0;dashed=0;align=center;html=1;shape=mxgraph.mockup.forms.rrect;rSize=0;strokeColor=#999999;fontColor=#999999;" vertex="1" parent="uQGhYSOyLo1qmVVU0KXH-1">
          <mxGeometry x="40.6875" y="47.64959999999999" width="27.125000000000004" height="8.823999999999998" as="geometry" />
        </mxCell>
        <mxCell id="uQGhYSOyLo1qmVVU0KXH-35" value="25" style="strokeWidth=1;shadow=0;dashed=0;align=center;html=1;shape=mxgraph.mockup.forms.rrect;rSize=0;strokeColor=#999999;fontColor=#999999;" vertex="1" parent="uQGhYSOyLo1qmVVU0KXH-1">
          <mxGeometry x="94.93750000000001" y="47.64959999999999" width="27.125000000000004" height="8.823999999999998" as="geometry" />
        </mxCell>
        <mxCell id="uQGhYSOyLo1qmVVU0KXH-36" value="26" style="strokeWidth=1;shadow=0;dashed=0;align=center;html=1;shape=mxgraph.mockup.forms.rrect;rSize=0;strokeColor=#999999;fontColor=#999999;" vertex="1" parent="uQGhYSOyLo1qmVVU0KXH-1">
          <mxGeometry x="122.06250000000001" y="47.64959999999999" width="27.125000000000004" height="8.823999999999998" as="geometry" />
        </mxCell>
        <mxCell id="uQGhYSOyLo1qmVVU0KXH-37" value="27" style="strokeWidth=1;shadow=0;dashed=0;align=center;html=1;shape=mxgraph.mockup.forms.rrect;rSize=0;strokeColor=#999999;fontColor=#999999;" vertex="1" parent="uQGhYSOyLo1qmVVU0KXH-1">
          <mxGeometry x="149.1875" y="47.64959999999999" width="27.125000000000004" height="8.823999999999998" as="geometry" />
        </mxCell>
        <mxCell id="uQGhYSOyLo1qmVVU0KXH-38" value="28" style="strokeWidth=1;shadow=0;dashed=0;align=center;html=1;shape=mxgraph.mockup.forms.rrect;rSize=0;strokeColor=#999999;fontColor=#999999;" vertex="1" parent="uQGhYSOyLo1qmVVU0KXH-1">
          <mxGeometry x="176.31250000000003" y="47.64959999999999" width="27.125000000000004" height="8.823999999999998" as="geometry" />
        </mxCell>
        <mxCell id="uQGhYSOyLo1qmVVU0KXH-39" value="29" style="strokeWidth=1;shadow=0;dashed=0;align=center;html=1;shape=mxgraph.mockup.forms.rrect;rSize=0;strokeColor=#999999;fontColor=#999999;" vertex="1" parent="uQGhYSOyLo1qmVVU0KXH-1">
          <mxGeometry x="13.562500000000002" y="56.47359999999998" width="27.125000000000004" height="8.823999999999998" as="geometry" />
        </mxCell>
        <mxCell id="uQGhYSOyLo1qmVVU0KXH-40" value="30" style="strokeWidth=1;shadow=0;dashed=0;align=center;html=1;shape=mxgraph.mockup.forms.rrect;rSize=0;strokeColor=#999999;fontColor=#999999;" vertex="1" parent="uQGhYSOyLo1qmVVU0KXH-1">
          <mxGeometry x="40.6875" y="56.47359999999998" width="27.125000000000004" height="8.823999999999998" as="geometry" />
        </mxCell>
        <mxCell id="uQGhYSOyLo1qmVVU0KXH-41" value="31" style="strokeWidth=1;shadow=0;dashed=0;align=center;html=1;shape=mxgraph.mockup.forms.rrect;rSize=0;strokeColor=#999999;fontColor=#999999;" vertex="1" parent="uQGhYSOyLo1qmVVU0KXH-1">
          <mxGeometry x="67.8125" y="56.47359999999998" width="27.125000000000004" height="8.823999999999998" as="geometry" />
        </mxCell>
        <mxCell id="uQGhYSOyLo1qmVVU0KXH-42" value="1" style="strokeWidth=1;shadow=0;dashed=0;align=center;html=1;shape=mxgraph.mockup.forms.rrect;rSize=0;strokeColor=#999999;fontColor=#999999;fillColor=#ddeeff;" vertex="1" parent="uQGhYSOyLo1qmVVU0KXH-1">
          <mxGeometry x="94.93750000000001" y="56.47359999999998" width="27.125000000000004" height="8.823999999999998" as="geometry" />
        </mxCell>
        <mxCell id="uQGhYSOyLo1qmVVU0KXH-43" value="2" style="strokeWidth=1;shadow=0;dashed=0;align=center;html=1;shape=mxgraph.mockup.forms.rrect;rSize=0;strokeColor=#999999;fontColor=#999999;fillColor=#ddeeff;" vertex="1" parent="uQGhYSOyLo1qmVVU0KXH-1">
          <mxGeometry x="122.06250000000001" y="56.47359999999998" width="27.125000000000004" height="8.823999999999998" as="geometry" />
        </mxCell>
        <mxCell id="uQGhYSOyLo1qmVVU0KXH-44" value="3" style="strokeWidth=1;shadow=0;dashed=0;align=center;html=1;shape=mxgraph.mockup.forms.rrect;rSize=0;strokeColor=#999999;fontColor=#999999;fillColor=#ddeeff;" vertex="1" parent="uQGhYSOyLo1qmVVU0KXH-1">
          <mxGeometry x="149.1875" y="56.47359999999998" width="27.125000000000004" height="8.823999999999998" as="geometry" />
        </mxCell>
        <mxCell id="uQGhYSOyLo1qmVVU0KXH-45" value="4" style="strokeWidth=1;shadow=0;dashed=0;align=center;html=1;shape=mxgraph.mockup.forms.rrect;rSize=0;strokeColor=#999999;fontColor=#999999;fillColor=#ddeeff;" vertex="1" parent="uQGhYSOyLo1qmVVU0KXH-1">
          <mxGeometry x="176.31250000000003" y="56.47359999999998" width="27.125000000000004" height="8.823999999999998" as="geometry" />
        </mxCell>
        <mxCell id="uQGhYSOyLo1qmVVU0KXH-46" value="5" style="strokeWidth=1;shadow=0;dashed=0;align=center;html=1;shape=mxgraph.mockup.forms.rrect;rSize=0;strokeColor=#999999;fontColor=#999999;fillColor=#ddeeff;" vertex="1" parent="uQGhYSOyLo1qmVVU0KXH-1">
          <mxGeometry x="13.562500000000002" y="65.29759999999997" width="27.125000000000004" height="8.823999999999998" as="geometry" />
        </mxCell>
        <mxCell id="uQGhYSOyLo1qmVVU0KXH-47" value="6" style="strokeWidth=1;shadow=0;dashed=0;align=center;html=1;shape=mxgraph.mockup.forms.rrect;rSize=0;strokeColor=#999999;fontColor=#999999;fillColor=#ddeeff;" vertex="1" parent="uQGhYSOyLo1qmVVU0KXH-1">
          <mxGeometry x="40.6875" y="65.29759999999997" width="27.125000000000004" height="8.823999999999998" as="geometry" />
        </mxCell>
        <mxCell id="uQGhYSOyLo1qmVVU0KXH-48" value="7" style="strokeWidth=1;shadow=0;dashed=0;align=center;html=1;shape=mxgraph.mockup.forms.rrect;rSize=0;strokeColor=#999999;fontColor=#999999;fillColor=#ddeeff;" vertex="1" parent="uQGhYSOyLo1qmVVU0KXH-1">
          <mxGeometry x="67.8125" y="65.29759999999997" width="27.125000000000004" height="8.823999999999998" as="geometry" />
        </mxCell>
        <mxCell id="uQGhYSOyLo1qmVVU0KXH-49" value="8" style="strokeWidth=1;shadow=0;dashed=0;align=center;html=1;shape=mxgraph.mockup.forms.rrect;rSize=0;strokeColor=#999999;fontColor=#999999;fillColor=#ddeeff;" vertex="1" parent="uQGhYSOyLo1qmVVU0KXH-1">
          <mxGeometry x="94.93750000000001" y="65.29759999999997" width="27.125000000000004" height="8.823999999999998" as="geometry" />
        </mxCell>
        <mxCell id="uQGhYSOyLo1qmVVU0KXH-50" value="9" style="strokeWidth=1;shadow=0;dashed=0;align=center;html=1;shape=mxgraph.mockup.forms.rrect;rSize=0;strokeColor=#999999;fontColor=#999999;fillColor=#ddeeff;" vertex="1" parent="uQGhYSOyLo1qmVVU0KXH-1">
          <mxGeometry x="122.06250000000001" y="65.29759999999997" width="27.125000000000004" height="8.823999999999998" as="geometry" />
        </mxCell>
        <mxCell id="uQGhYSOyLo1qmVVU0KXH-51" value="10" style="strokeWidth=1;shadow=0;dashed=0;align=center;html=1;shape=mxgraph.mockup.forms.rrect;rSize=0;strokeColor=#999999;fontColor=#999999;fillColor=#ddeeff;" vertex="1" parent="uQGhYSOyLo1qmVVU0KXH-1">
          <mxGeometry x="149.1875" y="65.29759999999997" width="27.125000000000004" height="8.823999999999998" as="geometry" />
        </mxCell>
        <mxCell id="uQGhYSOyLo1qmVVU0KXH-52" value="11" style="strokeWidth=1;shadow=0;dashed=0;align=center;html=1;shape=mxgraph.mockup.forms.rrect;rSize=0;strokeColor=#999999;fontColor=#999999;fillColor=#ddeeff;" vertex="1" parent="uQGhYSOyLo1qmVVU0KXH-1">
          <mxGeometry x="176.31250000000003" y="65.29759999999997" width="27.125000000000004" height="8.823999999999998" as="geometry" />
        </mxCell>
        <mxCell id="uQGhYSOyLo1qmVVU0KXH-53" value="24" style="strokeWidth=1;shadow=0;dashed=0;align=center;html=1;shape=mxgraph.mockup.forms.rrect;rSize=0;strokeColor=#ff0000;fontColor=#ffffff;strokeWidth=2;fillColor=#008cff;" vertex="1" parent="uQGhYSOyLo1qmVVU0KXH-1">
          <mxGeometry x="67.8125" y="47.64959999999999" width="27.125000000000004" height="8.823999999999998" as="geometry" />
        </mxCell>
        <mxCell id="uQGhYSOyLo1qmVVU0KXH-54" value="Termin" style="text;html=1;align=center;verticalAlign=middle;whiteSpace=wrap;rounded=0;" vertex="1" parent="PqCgT_i_we4N_XFNBk3o-1">
          <mxGeometry x="30" y="218" width="60" height="30" as="geometry" />
        </mxCell>
      </root>
    </mxGraphModel>
  </diagram>
  <diagram id="fLcif_8BohK0dgldnZe7" name="Strona-2">
    <mxGraphModel dx="1009" dy="550" grid="1" gridSize="10" guides="1" tooltips="1" connect="1" arrows="1" fold="1" page="1" pageScale="1" pageWidth="827" pageHeight="1169" math="0" shadow="0">
      <root>
        <mxCell id="0" />
        <mxCell id="1" parent="0" />
        <mxCell id="6Ro5PVa6fDe5Ohe-M9_j-1" value="" style="strokeWidth=1;shadow=0;dashed=0;align=center;html=1;shape=mxgraph.mockup.containers.browserWindow;rSize=0;strokeColor=#666666;strokeColor2=#008cff;strokeColor3=#c4c4c4;mainText=,;recursiveResize=0;" vertex="1" parent="1">
          <mxGeometry x="134" y="30" width="560" height="485" as="geometry" />
        </mxCell>
        <mxCell id="6Ro5PVa6fDe5Ohe-M9_j-2" value="Page 1" style="strokeWidth=1;shadow=0;dashed=0;align=center;html=1;shape=mxgraph.mockup.containers.anchor;fontSize=17;fontColor=#666666;align=left;whiteSpace=wrap;" vertex="1" parent="6Ro5PVa6fDe5Ohe-M9_j-1">
          <mxGeometry x="60" y="12" width="110" height="26" as="geometry" />
        </mxCell>
        <mxCell id="6Ro5PVa6fDe5Ohe-M9_j-3" value="https://www.scrum-board.com/tablica/1" style="strokeWidth=1;shadow=0;dashed=0;align=center;html=1;shape=mxgraph.mockup.containers.anchor;rSize=0;fontSize=17;fontColor=#666666;align=left;" vertex="1" parent="6Ro5PVa6fDe5Ohe-M9_j-1">
          <mxGeometry x="130" y="60" width="250" height="26" as="geometry" />
        </mxCell>
        <mxCell id="6Ro5PVa6fDe5Ohe-M9_j-4" value="" style="verticalLabelPosition=bottom;shadow=0;dashed=0;align=center;html=1;verticalAlign=top;strokeWidth=1;shape=mxgraph.mockup.containers.userMale;strokeColor=#666666;strokeColor2=#008cff;" vertex="1" parent="6Ro5PVa6fDe5Ohe-M9_j-1">
          <mxGeometry x="520" y="110" width="40" height="40" as="geometry" />
        </mxCell>
        <mxCell id="6Ro5PVa6fDe5Ohe-M9_j-5" value="" style="strokeWidth=1;shadow=0;dashed=0;align=center;html=1;shape=mxgraph.mockup.forms.anchor;align=right;spacingRight=2;fontColor=#666666;" vertex="1" parent="6Ro5PVa6fDe5Ohe-M9_j-1">
          <mxGeometry x="60" y="200" width="50" height="18" as="geometry" />
        </mxCell>
        <mxCell id="6Ro5PVa6fDe5Ohe-M9_j-6" value="" style="strokeWidth=1;shadow=0;dashed=0;align=center;html=1;shape=mxgraph.mockup.forms.anchor;align=right;spacingRight=2;fontColor=#666666;" vertex="1" parent="6Ro5PVa6fDe5Ohe-M9_j-1">
          <mxGeometry x="60" y="230" width="50" height="18" as="geometry" />
        </mxCell>
        <mxCell id="6Ro5PVa6fDe5Ohe-M9_j-7" value="" style="verticalLabelPosition=bottom;shadow=0;dashed=0;align=center;html=1;verticalAlign=top;strokeWidth=1;shape=mxgraph.mockup.misc.help_icon;" vertex="1" parent="6Ro5PVa6fDe5Ohe-M9_j-1">
          <mxGeometry x="6" y="118" width="32" height="32" as="geometry" />
        </mxCell>
        <mxCell id="6Ro5PVa6fDe5Ohe-M9_j-8" value="&lt;font style=&quot;font-size: 14px;&quot;&gt;&lt;b&gt;Nazwa tablicy&lt;/b&gt;&lt;/font&gt;" style="text;html=1;align=center;verticalAlign=middle;whiteSpace=wrap;rounded=0;" vertex="1" parent="6Ro5PVa6fDe5Ohe-M9_j-1">
          <mxGeometry x="38" y="120" width="102" height="30" as="geometry" />
        </mxCell>
        <mxCell id="6Ro5PVa6fDe5Ohe-M9_j-12" value="" style="strokeWidth=1;shadow=0;dashed=0;align=center;html=1;shape=mxgraph.mockup.containers.rrect;rSize=0;strokeColor=#666666;fontColor=#666666;fontSize=17;verticalAlign=top;whiteSpace=wrap;fillColor=#ffffff;spacingTop=32;" vertex="1" parent="6Ro5PVa6fDe5Ohe-M9_j-1">
          <mxGeometry x="155" y="173" width="250" height="140" as="geometry" />
        </mxCell>
        <mxCell id="6Ro5PVa6fDe5Ohe-M9_j-13" value="Tworzenie sekcji" style="strokeWidth=1;shadow=0;dashed=0;align=center;html=1;shape=mxgraph.mockup.containers.rrect;rSize=0;fontSize=17;fontColor=#666666;strokeColor=#666666;align=left;spacingLeft=8;fillColor=none;resizeWidth=1;whiteSpace=wrap;" vertex="1" parent="6Ro5PVa6fDe5Ohe-M9_j-12">
          <mxGeometry width="250" height="30" relative="1" as="geometry" />
        </mxCell>
        <mxCell id="6Ro5PVa6fDe5Ohe-M9_j-16" value="utwórz" style="strokeWidth=1;shadow=0;dashed=0;align=center;html=1;shape=mxgraph.mockup.containers.rrect;rSize=0;fontSize=16;fontColor=#666666;strokeColor=#c4c4c4;whiteSpace=wrap;fillColor=none;" vertex="1" parent="6Ro5PVa6fDe5Ohe-M9_j-12">
          <mxGeometry x="0.75" y="1" width="90" height="25" relative="1" as="geometry">
            <mxPoint x="-45" y="-33" as="offset" />
          </mxGeometry>
        </mxCell>
        <mxCell id="6Ro5PVa6fDe5Ohe-M9_j-17" value="Nazwa" style="text;html=1;align=center;verticalAlign=middle;whiteSpace=wrap;rounded=0;" vertex="1" parent="6Ro5PVa6fDe5Ohe-M9_j-12">
          <mxGeometry x="5" y="55" width="60" height="30" as="geometry" />
        </mxCell>
        <mxCell id="6Ro5PVa6fDe5Ohe-M9_j-18" value="przykładowa nazwa" style="strokeWidth=1;shadow=0;dashed=0;align=center;html=1;shape=mxgraph.mockup.forms.pwField;strokeColor=#999999;mainText=;align=left;fontColor=#666666;fontSize=17;spacingLeft=3;" vertex="1" parent="6Ro5PVa6fDe5Ohe-M9_j-12">
          <mxGeometry x="65" y="55" width="175" height="30" as="geometry" />
        </mxCell>
        <mxCell id="6Ro5PVa6fDe5Ohe-M9_j-20" value="" style="verticalLabelPosition=bottom;verticalAlign=top;html=1;shape=mxgraph.basic.x" vertex="1" parent="6Ro5PVa6fDe5Ohe-M9_j-12">
          <mxGeometry x="226" width="24" height="20" as="geometry" />
        </mxCell>
        <mxCell id="VHgBOdcvr8KjCzx9gJPn-1" value="" style="strokeWidth=1;shadow=0;dashed=0;align=center;html=1;shape=mxgraph.mockup.containers.browserWindow;rSize=0;strokeColor=#666666;strokeColor2=#008cff;strokeColor3=#c4c4c4;mainText=,;recursiveResize=0;" vertex="1" parent="1">
          <mxGeometry x="134" y="540" width="560" height="485" as="geometry" />
        </mxCell>
        <mxCell id="VHgBOdcvr8KjCzx9gJPn-2" value="Page 1" style="strokeWidth=1;shadow=0;dashed=0;align=center;html=1;shape=mxgraph.mockup.containers.anchor;fontSize=17;fontColor=#666666;align=left;whiteSpace=wrap;" vertex="1" parent="VHgBOdcvr8KjCzx9gJPn-1">
          <mxGeometry x="60" y="12" width="110" height="26" as="geometry" />
        </mxCell>
        <mxCell id="VHgBOdcvr8KjCzx9gJPn-3" value="https://www.scrum-board.com/tablica/1" style="strokeWidth=1;shadow=0;dashed=0;align=center;html=1;shape=mxgraph.mockup.containers.anchor;rSize=0;fontSize=17;fontColor=#666666;align=left;" vertex="1" parent="VHgBOdcvr8KjCzx9gJPn-1">
          <mxGeometry x="130" y="60" width="250" height="26" as="geometry" />
        </mxCell>
        <mxCell id="VHgBOdcvr8KjCzx9gJPn-4" value="" style="verticalLabelPosition=bottom;shadow=0;dashed=0;align=center;html=1;verticalAlign=top;strokeWidth=1;shape=mxgraph.mockup.containers.userMale;strokeColor=#666666;strokeColor2=#008cff;" vertex="1" parent="VHgBOdcvr8KjCzx9gJPn-1">
          <mxGeometry x="520" y="110" width="40" height="40" as="geometry" />
        </mxCell>
        <mxCell id="VHgBOdcvr8KjCzx9gJPn-5" value="" style="strokeWidth=1;shadow=0;dashed=0;align=center;html=1;shape=mxgraph.mockup.forms.anchor;align=right;spacingRight=2;fontColor=#666666;" vertex="1" parent="VHgBOdcvr8KjCzx9gJPn-1">
          <mxGeometry x="60" y="200" width="50" height="18" as="geometry" />
        </mxCell>
        <mxCell id="VHgBOdcvr8KjCzx9gJPn-6" value="" style="strokeWidth=1;shadow=0;dashed=0;align=center;html=1;shape=mxgraph.mockup.forms.anchor;align=right;spacingRight=2;fontColor=#666666;" vertex="1" parent="VHgBOdcvr8KjCzx9gJPn-1">
          <mxGeometry x="60" y="230" width="50" height="18" as="geometry" />
        </mxCell>
        <mxCell id="VHgBOdcvr8KjCzx9gJPn-7" value="" style="verticalLabelPosition=bottom;shadow=0;dashed=0;align=center;html=1;verticalAlign=top;strokeWidth=1;shape=mxgraph.mockup.misc.help_icon;" vertex="1" parent="VHgBOdcvr8KjCzx9gJPn-1">
          <mxGeometry x="6" y="118" width="32" height="32" as="geometry" />
        </mxCell>
        <mxCell id="VHgBOdcvr8KjCzx9gJPn-8" value="&lt;font style=&quot;font-size: 14px;&quot;&gt;&lt;b&gt;Nazwa tablicy&lt;/b&gt;&lt;/font&gt;" style="text;html=1;align=center;verticalAlign=middle;whiteSpace=wrap;rounded=0;" vertex="1" parent="VHgBOdcvr8KjCzx9gJPn-1">
          <mxGeometry x="38" y="120" width="102" height="30" as="geometry" />
        </mxCell>
        <mxCell id="VHgBOdcvr8KjCzx9gJPn-9" value="Nazwa sekcji" style="swimlane;whiteSpace=wrap;html=1;" vertex="1" parent="VHgBOdcvr8KjCzx9gJPn-1">
          <mxGeometry x="215" y="200" width="130" height="200" as="geometry" />
        </mxCell>
        <mxCell id="12Rim2TNoNShVMnvjZ4n-1" value="" style="strokeWidth=1;shadow=0;dashed=0;align=center;html=1;shape=mxgraph.mockup.containers.browserWindow;rSize=0;strokeColor=#666666;strokeColor2=#008cff;strokeColor3=#c4c4c4;mainText=,;recursiveResize=0;" vertex="1" parent="1">
          <mxGeometry x="134" y="1050" width="560" height="485" as="geometry" />
        </mxCell>
        <mxCell id="12Rim2TNoNShVMnvjZ4n-2" value="Page 1" style="strokeWidth=1;shadow=0;dashed=0;align=center;html=1;shape=mxgraph.mockup.containers.anchor;fontSize=17;fontColor=#666666;align=left;whiteSpace=wrap;" vertex="1" parent="12Rim2TNoNShVMnvjZ4n-1">
          <mxGeometry x="60" y="12" width="110" height="26" as="geometry" />
        </mxCell>
        <mxCell id="12Rim2TNoNShVMnvjZ4n-3" value="https://www.scrum-board.com/tablica/1" style="strokeWidth=1;shadow=0;dashed=0;align=center;html=1;shape=mxgraph.mockup.containers.anchor;rSize=0;fontSize=17;fontColor=#666666;align=left;" vertex="1" parent="12Rim2TNoNShVMnvjZ4n-1">
          <mxGeometry x="130" y="60" width="250" height="26" as="geometry" />
        </mxCell>
        <mxCell id="12Rim2TNoNShVMnvjZ4n-4" value="" style="verticalLabelPosition=bottom;shadow=0;dashed=0;align=center;html=1;verticalAlign=top;strokeWidth=1;shape=mxgraph.mockup.containers.userMale;strokeColor=#666666;strokeColor2=#008cff;" vertex="1" parent="12Rim2TNoNShVMnvjZ4n-1">
          <mxGeometry x="520" y="110" width="40" height="40" as="geometry" />
        </mxCell>
        <mxCell id="12Rim2TNoNShVMnvjZ4n-5" value="" style="strokeWidth=1;shadow=0;dashed=0;align=center;html=1;shape=mxgraph.mockup.forms.anchor;align=right;spacingRight=2;fontColor=#666666;" vertex="1" parent="12Rim2TNoNShVMnvjZ4n-1">
          <mxGeometry x="60" y="200" width="50" height="18" as="geometry" />
        </mxCell>
        <mxCell id="12Rim2TNoNShVMnvjZ4n-6" value="" style="strokeWidth=1;shadow=0;dashed=0;align=center;html=1;shape=mxgraph.mockup.forms.anchor;align=right;spacingRight=2;fontColor=#666666;" vertex="1" parent="12Rim2TNoNShVMnvjZ4n-1">
          <mxGeometry x="60" y="230" width="50" height="18" as="geometry" />
        </mxCell>
        <mxCell id="12Rim2TNoNShVMnvjZ4n-7" value="" style="verticalLabelPosition=bottom;shadow=0;dashed=0;align=center;html=1;verticalAlign=top;strokeWidth=1;shape=mxgraph.mockup.misc.help_icon;" vertex="1" parent="12Rim2TNoNShVMnvjZ4n-1">
          <mxGeometry x="6" y="118" width="32" height="32" as="geometry" />
        </mxCell>
        <mxCell id="12Rim2TNoNShVMnvjZ4n-8" value="&lt;font style=&quot;font-size: 14px;&quot;&gt;&lt;b&gt;Nazwa tablicy&lt;/b&gt;&lt;/font&gt;" style="text;html=1;align=center;verticalAlign=middle;whiteSpace=wrap;rounded=0;" vertex="1" parent="12Rim2TNoNShVMnvjZ4n-1">
          <mxGeometry x="38" y="120" width="102" height="30" as="geometry" />
        </mxCell>
        <mxCell id="12Rim2TNoNShVMnvjZ4n-9" value="Nazwa sekcji" style="swimlane;whiteSpace=wrap;html=1;" vertex="1" parent="12Rim2TNoNShVMnvjZ4n-1">
          <mxGeometry x="207.5" y="180" width="145" height="230" as="geometry">
            <mxRectangle x="215" y="200" width="110" height="30" as="alternateBounds" />
          </mxGeometry>
        </mxCell>
        <mxCell id="12Rim2TNoNShVMnvjZ4n-10" value="" style="strokeColor=#999999;verticalLabelPosition=bottom;shadow=0;dashed=0;verticalAlign=top;strokeWidth=2;html=1;shape=mxgraph.mockup.misc.editIcon;" vertex="1" parent="12Rim2TNoNShVMnvjZ4n-9">
          <mxGeometry x="115" width="30" height="22" as="geometry" />
        </mxCell>
        <mxCell id="12Rim2TNoNShVMnvjZ4n-11" value="" style="endArrow=none;html=1;rounded=0;" edge="1" parent="12Rim2TNoNShVMnvjZ4n-9">
          <mxGeometry width="50" height="50" relative="1" as="geometry">
            <mxPoint x="130" y="50" as="sourcePoint" />
            <mxPoint x="130" y="30" as="targetPoint" />
          </mxGeometry>
        </mxCell>
        <mxCell id="12Rim2TNoNShVMnvjZ4n-12" value="" style="endArrow=none;html=1;rounded=0;" edge="1" parent="12Rim2TNoNShVMnvjZ4n-9">
          <mxGeometry width="50" height="50" relative="1" as="geometry">
            <mxPoint x="140" y="40" as="sourcePoint" />
            <mxPoint x="120" y="40" as="targetPoint" />
          </mxGeometry>
        </mxCell>
        <mxCell id="12Rim2TNoNShVMnvjZ4n-13" value="" style="endArrow=none;html=1;rounded=0;" edge="1" parent="12Rim2TNoNShVMnvjZ4n-1">
          <mxGeometry width="50" height="50" relative="1" as="geometry">
            <mxPoint x="380" y="305" as="sourcePoint" />
            <mxPoint x="380" y="285" as="targetPoint" />
          </mxGeometry>
        </mxCell>
        <mxCell id="12Rim2TNoNShVMnvjZ4n-14" value="" style="endArrow=none;html=1;rounded=0;" edge="1" parent="12Rim2TNoNShVMnvjZ4n-1">
          <mxGeometry width="50" height="50" relative="1" as="geometry">
            <mxPoint x="390" y="295" as="sourcePoint" />
            <mxPoint x="370" y="295" as="targetPoint" />
          </mxGeometry>
        </mxCell>
        <mxCell id="12Rim2TNoNShVMnvjZ4n-15" value="&lt;font style=&quot;font-size: 9px;&quot;&gt;dodaj nową sekcję&lt;/font&gt;" style="text;html=1;align=center;verticalAlign=middle;whiteSpace=wrap;rounded=0;strokeWidth=1;" vertex="1" parent="12Rim2TNoNShVMnvjZ4n-1">
          <mxGeometry x="353" y="310" width="57" height="30" as="geometry" />
        </mxCell>
      </root>
    </mxGraphModel>
  </diagram>
</mxfile>
